<?xml version="1.0" encoding="UTF-8"?>
<svg id="Lager_2" xmlns="http://www.w3.org/2000/svg" viewBox="0 0 404.96 11.5">
  <defs>
    <style>
      .cls-1 {
        fill: #f9b3d1;
      }
    </style>
  </defs>
  <g id="Lager_1-2" data-name="Lager_1">
    <path class="cls-1" d="M8.96,6.19H3.7c-.65,0-1.16.17-1.52.51-.36.33-.54.78-.54,1.36s.18,1.02.53,1.36c.36.33.87.5,1.52.5.73,0,1.25-.21,1.58-.64.33-.44.5-1.09.5-1.97v-1.44h1.6v1.6c0,.83-.12,1.51-.35,2.03-.23.52-.54.93-.91,1.23-.37.29-.77.49-1.18.61-.42.11-.8.16-1.15.16-.8,0-1.48-.15-2.05-.46-.55-.31-.98-.73-1.28-1.25-.29-.52-.43-1.1-.43-1.73,0-.58.17-1.1.5-1.57.34-.48.81-.86,1.41-1.14.61-.29,1.3-.43,2.08-.43l-.3.88c-.94,0-1.69-.26-2.26-.77-.55-.52-.83-1.19-.83-2.02,0-.49.12-.97.35-1.42.23-.46.58-.84,1.04-1.14.46-.31,1.02-.46,1.68-.46.29,0,.59.03.91.1.33.05.66.17.99.35.34.18.66.45.96.8l-1.07.98c-.23-.23-.49-.4-.77-.5-.28-.1-.56-.14-.85-.14-.53,0-.94.15-1.22.45-.27.3-.4.63-.4,1.01,0,.47.17.86.51,1.18.35.31.88.46,1.58.46h4.64v1.5Z"/>
    <path class="cls-1" d="M19.96,6.19h-5.26c-.65,0-1.16.17-1.52.51-.36.33-.54.78-.54,1.36s.18,1.02.53,1.36c.36.33.87.5,1.52.5.73,0,1.25-.21,1.58-.64.33-.44.5-1.09.5-1.97v-1.44h1.6v1.6c0,.83-.12,1.51-.35,2.03-.23.52-.54.93-.91,1.23-.37.29-.77.49-1.18.61-.42.11-.8.16-1.15.16-.8,0-1.48-.15-2.05-.46-.55-.31-.98-.73-1.28-1.25-.29-.52-.43-1.1-.43-1.73,0-.58.17-1.1.5-1.57.34-.48.81-.86,1.41-1.14.61-.29,1.3-.43,2.08-.43l-.3.88c-.94,0-1.69-.26-2.26-.77-.55-.52-.83-1.19-.83-2.02,0-.49.12-.97.35-1.42.23-.46.58-.84,1.04-1.14.46-.31,1.02-.46,1.68-.46.29,0,.59.03.91.1.33.05.66.17.99.35.34.18.66.45.96.8l-1.07.98c-.23-.23-.49-.4-.77-.5-.28-.1-.56-.14-.85-.14-.53,0-.94.15-1.22.45-.27.3-.4.63-.4,1.01,0,.47.17.86.51,1.18.35.31.88.46,1.58.46h4.64v1.5Z"/>
    <path class="cls-1" d="M30.96,6.19h-5.26c-.65,0-1.16.17-1.52.51-.36.33-.54.78-.54,1.36s.18,1.02.53,1.36c.36.33.87.5,1.52.5.73,0,1.25-.21,1.58-.64.33-.44.5-1.09.5-1.97v-1.44h1.6v1.6c0,.83-.12,1.51-.35,2.03-.23.52-.54.93-.91,1.23-.37.29-.77.49-1.18.61-.42.11-.8.16-1.15.16-.8,0-1.48-.15-2.05-.46-.55-.31-.98-.73-1.28-1.25-.29-.52-.43-1.1-.43-1.73,0-.58.17-1.1.5-1.57.34-.48.81-.86,1.41-1.14.61-.29,1.3-.43,2.08-.43l-.3.88c-.94,0-1.69-.26-2.26-.77-.55-.52-.83-1.19-.83-2.02,0-.49.12-.97.35-1.42.23-.46.58-.84,1.04-1.14.46-.31,1.02-.46,1.68-.46.29,0,.59.03.91.1.33.05.66.17.99.35.34.18.66.45.96.8l-1.07.98c-.23-.23-.49-.4-.77-.5-.28-.1-.56-.14-.85-.14-.53,0-.94.15-1.22.45-.27.3-.4.63-.4,1.01,0,.47.17.86.51,1.18.35.31.88.46,1.58.46h4.64v1.5Z"/>
    <path class="cls-1" d="M41.96,6.19h-5.26c-.65,0-1.16.17-1.52.51-.36.33-.54.78-.54,1.36s.18,1.02.53,1.36c.36.33.87.5,1.52.5.73,0,1.25-.21,1.58-.64.33-.44.5-1.09.5-1.97v-1.44h1.6v1.6c0,.83-.12,1.51-.35,2.03-.23.52-.54.93-.91,1.23-.37.29-.77.49-1.18.61-.42.11-.8.16-1.15.16-.8,0-1.48-.15-2.05-.46-.55-.31-.98-.73-1.28-1.25-.29-.52-.43-1.1-.43-1.73,0-.58.17-1.1.5-1.57.34-.48.81-.86,1.41-1.14.61-.29,1.3-.43,2.08-.43l-.3.88c-.94,0-1.69-.26-2.26-.77-.55-.52-.83-1.19-.83-2.02,0-.49.12-.97.35-1.42.23-.46.58-.84,1.04-1.14.46-.31,1.02-.46,1.68-.46.29,0,.59.03.91.1.33.05.66.17.99.35.34.18.66.45.96.8l-1.07.98c-.23-.23-.49-.4-.77-.5-.28-.1-.56-.14-.85-.14-.53,0-.94.15-1.22.45-.27.3-.4.63-.4,1.01,0,.47.17.86.51,1.18.35.31.88.46,1.58.46h4.64v1.5Z"/>
    <path class="cls-1" d="M52.96,6.19h-5.26c-.65,0-1.16.17-1.52.51-.36.33-.54.78-.54,1.36s.18,1.02.53,1.36c.36.33.87.5,1.52.5.73,0,1.25-.21,1.58-.64.33-.44.5-1.09.5-1.97v-1.44h1.6v1.6c0,.83-.12,1.51-.35,2.03-.23.52-.54.93-.91,1.23-.37.29-.77.49-1.18.61-.42.11-.8.16-1.15.16-.8,0-1.48-.15-2.05-.46-.55-.31-.98-.73-1.28-1.25-.29-.52-.43-1.1-.43-1.73,0-.58.17-1.1.5-1.57.34-.48.81-.86,1.41-1.14.61-.29,1.3-.43,2.08-.43l-.3.88c-.94,0-1.69-.26-2.26-.77-.55-.52-.83-1.19-.83-2.02,0-.49.12-.97.35-1.42s.58-.84,1.04-1.14c.46-.31,1.02-.46,1.68-.46.29,0,.59.03.91.1.33.05.66.17.99.35.34.18.66.45.96.8l-1.07.98c-.23-.23-.49-.4-.77-.5-.28-.1-.56-.14-.85-.14-.53,0-.94.15-1.22.45-.27.3-.4.63-.4,1.01,0,.47.17.86.51,1.18.35.31.88.46,1.58.46h4.64v1.5Z"/>
    <path class="cls-1" d="M63.96,6.19h-5.26c-.65,0-1.16.17-1.52.51-.36.33-.54.78-.54,1.36s.18,1.02.53,1.36c.36.33.87.5,1.52.5.73,0,1.25-.21,1.58-.64.33-.44.5-1.09.5-1.97v-1.44h1.6v1.6c0,.83-.12,1.51-.35,2.03-.23.52-.54.93-.91,1.23-.37.29-.77.49-1.18.61-.42.11-.8.16-1.15.16-.8,0-1.48-.15-2.05-.46-.55-.31-.98-.73-1.28-1.25-.29-.52-.43-1.1-.43-1.73,0-.58.17-1.1.5-1.57.34-.48.81-.86,1.41-1.14.61-.29,1.3-.43,2.08-.43l-.3.88c-.94,0-1.69-.26-2.26-.77-.55-.52-.83-1.19-.83-2.02,0-.49.12-.97.35-1.42s.58-.84,1.04-1.14c.46-.31,1.02-.46,1.68-.46.29,0,.59.03.91.1.33.05.66.17.99.35.34.18.66.45.96.8l-1.07.98c-.23-.23-.49-.4-.77-.5-.28-.1-.56-.14-.85-.14-.53,0-.94.15-1.22.45-.27.3-.4.63-.4,1.01,0,.47.17.86.51,1.18.35.31.88.46,1.58.46h4.64v1.5Z"/>
    <path class="cls-1" d="M74.96,6.19h-5.26c-.65,0-1.16.17-1.52.51-.36.33-.54.78-.54,1.36s.18,1.02.53,1.36c.36.33.87.5,1.52.5.73,0,1.25-.21,1.58-.64.33-.44.5-1.09.5-1.97v-1.44h1.6v1.6c0,.83-.12,1.51-.35,2.03-.23.52-.54.93-.91,1.23-.37.29-.77.49-1.18.61-.42.11-.8.16-1.15.16-.8,0-1.48-.15-2.05-.46-.55-.31-.98-.73-1.28-1.25-.29-.52-.43-1.1-.43-1.73,0-.58.17-1.1.5-1.57.34-.48.81-.86,1.41-1.14.61-.29,1.3-.43,2.08-.43l-.3.88c-.94,0-1.69-.26-2.26-.77-.55-.52-.83-1.19-.83-2.02,0-.49.12-.97.35-1.42s.58-.84,1.04-1.14c.46-.31,1.02-.46,1.68-.46.29,0,.59.03.91.1.33.05.66.17.99.35.34.18.66.45.96.8l-1.07.98c-.23-.23-.49-.4-.77-.5-.28-.1-.56-.14-.85-.14-.53,0-.94.15-1.22.45-.27.3-.4.63-.4,1.01,0,.47.17.86.51,1.18.35.31.88.46,1.58.46h4.64v1.5Z"/>
    <path class="cls-1" d="M85.96,6.19h-5.26c-.65,0-1.16.17-1.52.51-.36.33-.54.78-.54,1.36s.18,1.02.53,1.36c.36.33.87.5,1.52.5.73,0,1.25-.21,1.58-.64.33-.44.5-1.09.5-1.97v-1.44h1.6v1.6c0,.83-.12,1.51-.35,2.03-.23.52-.54.93-.91,1.23-.37.29-.77.49-1.18.61-.42.11-.8.16-1.15.16-.8,0-1.48-.15-2.05-.46-.55-.31-.98-.73-1.28-1.25-.29-.52-.43-1.1-.43-1.73,0-.58.17-1.1.5-1.57.34-.48.81-.86,1.41-1.14.61-.29,1.3-.43,2.08-.43l-.3.88c-.94,0-1.69-.26-2.26-.77-.55-.52-.83-1.19-.83-2.02,0-.49.12-.97.35-1.42s.58-.84,1.04-1.14c.46-.31,1.02-.46,1.68-.46.29,0,.59.03.91.1.33.05.66.17.99.35.34.18.66.45.96.8l-1.07.98c-.23-.23-.49-.4-.77-.5-.28-.1-.56-.14-.85-.14-.53,0-.94.15-1.22.45-.27.3-.4.63-.4,1.01,0,.47.17.86.51,1.18.35.31.88.46,1.58.46h4.64v1.5Z"/>
    <path class="cls-1" d="M96.96,6.19h-5.26c-.65,0-1.16.17-1.52.51-.36.33-.54.78-.54,1.36s.18,1.02.53,1.36c.36.33.87.5,1.52.5.73,0,1.25-.21,1.58-.64.33-.44.5-1.09.5-1.97v-1.44h1.6v1.6c0,.83-.12,1.51-.35,2.03-.23.52-.54.93-.91,1.23-.37.29-.77.49-1.18.61-.42.11-.8.16-1.15.16-.8,0-1.48-.15-2.05-.46-.55-.31-.98-.73-1.28-1.25-.29-.52-.43-1.1-.43-1.73,0-.58.17-1.1.5-1.57.34-.48.81-.86,1.41-1.14.61-.29,1.3-.43,2.08-.43l-.3.88c-.94,0-1.69-.26-2.26-.77-.55-.52-.83-1.19-.83-2.02,0-.49.12-.97.35-1.42s.58-.84,1.04-1.14c.46-.31,1.02-.46,1.68-.46.29,0,.59.03.91.1.33.05.66.17.99.35.34.18.66.45.96.8l-1.07.98c-.23-.23-.49-.4-.77-.5-.28-.1-.56-.14-.85-.14-.53,0-.94.15-1.22.45-.27.3-.4.63-.4,1.01,0,.47.17.86.51,1.18.35.31.88.46,1.58.46h4.64v1.5Z"/>
    <path class="cls-1" d="M107.96,6.19h-5.26c-.65,0-1.16.17-1.52.51-.36.33-.54.78-.54,1.36s.18,1.02.53,1.36c.36.33.87.5,1.52.5.73,0,1.25-.21,1.58-.64.33-.44.5-1.09.5-1.97v-1.44h1.6v1.6c0,.83-.12,1.51-.35,2.03-.24.52-.54.93-.91,1.23-.37.29-.77.49-1.18.61-.42.11-.8.16-1.15.16-.8,0-1.48-.15-2.05-.46-.55-.31-.98-.73-1.28-1.25-.29-.52-.43-1.1-.43-1.73,0-.58.17-1.1.5-1.57.34-.48.81-.86,1.41-1.14.61-.29,1.3-.43,2.08-.43l-.3.88c-.94,0-1.69-.26-2.26-.77-.55-.52-.83-1.19-.83-2.02,0-.49.12-.97.35-1.42s.58-.84,1.04-1.14c.46-.31,1.02-.46,1.68-.46.29,0,.59.03.91.1.33.05.66.17.99.35.34.18.66.45.96.8l-1.07.98c-.23-.23-.49-.4-.77-.5-.28-.1-.56-.14-.85-.14-.53,0-.94.15-1.22.45-.27.3-.4.63-.4,1.01,0,.47.17.86.51,1.18.35.31.88.46,1.58.46h4.64v1.5Z"/>
    <path class="cls-1" d="M118.96,6.19h-5.26c-.65,0-1.16.17-1.52.51-.36.33-.54.78-.54,1.36s.18,1.02.53,1.36c.36.33.87.5,1.52.5.72,0,1.25-.21,1.58-.64.33-.44.5-1.09.5-1.97v-1.44h1.6v1.6c0,.83-.12,1.51-.35,2.03-.24.52-.54.93-.91,1.23-.37.29-.77.49-1.18.61-.42.11-.8.16-1.15.16-.8,0-1.48-.15-2.05-.46-.56-.31-.98-.73-1.28-1.25-.29-.52-.43-1.1-.43-1.73,0-.58.17-1.1.5-1.57.34-.48.81-.86,1.41-1.14.61-.29,1.3-.43,2.08-.43l-.3.88c-.94,0-1.69-.26-2.26-.77-.56-.52-.83-1.19-.83-2.02,0-.49.12-.97.35-1.42s.58-.84,1.04-1.14c.46-.31,1.02-.46,1.68-.46.29,0,.59.03.91.1.33.05.66.17.99.35.34.18.66.45.96.8l-1.07.98c-.24-.23-.49-.4-.77-.5-.28-.1-.56-.14-.85-.14-.53,0-.94.15-1.22.45-.27.3-.4.63-.4,1.01,0,.47.17.86.51,1.18.35.31.88.46,1.58.46h4.64v1.5Z"/>
    <path class="cls-1" d="M129.96,6.19h-5.26c-.65,0-1.16.17-1.52.51-.36.33-.54.78-.54,1.36s.18,1.02.53,1.36c.36.33.87.5,1.52.5.72,0,1.25-.21,1.58-.64.33-.44.5-1.09.5-1.97v-1.44h1.6v1.6c0,.83-.12,1.51-.35,2.03-.24.52-.54.93-.91,1.23-.37.29-.77.49-1.18.61-.42.11-.8.16-1.15.16-.8,0-1.48-.15-2.05-.46-.56-.31-.98-.73-1.28-1.25-.29-.52-.43-1.1-.43-1.73,0-.58.17-1.1.5-1.57.34-.48.81-.86,1.41-1.14.61-.29,1.3-.43,2.08-.43l-.3.88c-.94,0-1.69-.26-2.26-.77-.56-.52-.83-1.19-.83-2.02,0-.49.12-.97.35-1.42s.58-.84,1.04-1.14c.46-.31,1.02-.46,1.68-.46.29,0,.59.03.91.1.33.05.66.17.99.35.34.18.66.45.96.8l-1.07.98c-.24-.23-.49-.4-.77-.5-.28-.1-.56-.14-.85-.14-.53,0-.94.15-1.22.45-.27.3-.4.63-.4,1.01,0,.47.17.86.51,1.18.35.31.88.46,1.58.46h4.64v1.5Z"/>
    <path class="cls-1" d="M140.96,6.19h-5.26c-.65,0-1.16.17-1.52.51-.36.33-.54.78-.54,1.36s.18,1.02.53,1.36c.36.33.87.5,1.52.5.73,0,1.25-.21,1.58-.64.33-.44.5-1.09.5-1.97v-1.44h1.6v1.6c0,.83-.12,1.51-.35,2.03-.24.52-.54.93-.91,1.23-.37.29-.77.49-1.18.61-.42.11-.8.16-1.15.16-.8,0-1.48-.15-2.05-.46-.56-.31-.98-.73-1.28-1.25-.29-.52-.43-1.1-.43-1.73,0-.58.17-1.1.5-1.57.34-.48.81-.86,1.41-1.14.61-.29,1.3-.43,2.08-.43l-.3.88c-.94,0-1.69-.26-2.26-.77-.55-.52-.83-1.19-.83-2.02,0-.49.12-.97.35-1.42s.58-.84,1.04-1.14c.46-.31,1.02-.46,1.68-.46.29,0,.59.03.91.1.33.05.66.17.99.35.34.18.66.45.96.8l-1.07.98c-.24-.23-.49-.4-.77-.5-.28-.1-.56-.14-.85-.14-.53,0-.94.15-1.22.45-.27.3-.4.63-.4,1.01,0,.47.17.86.51,1.18.35.31.88.46,1.58.46h4.64v1.5Z"/>
    <path class="cls-1" d="M151.96,6.19h-5.26c-.65,0-1.16.17-1.52.51-.36.33-.54.78-.54,1.36s.18,1.02.53,1.36c.36.33.87.5,1.52.5.73,0,1.25-.21,1.58-.64.33-.44.5-1.09.5-1.97v-1.44h1.6v1.6c0,.83-.12,1.51-.35,2.03-.24.52-.54.93-.91,1.23-.37.29-.77.49-1.18.61-.42.11-.8.16-1.15.16-.8,0-1.48-.15-2.05-.46-.56-.31-.98-.73-1.28-1.25-.29-.52-.43-1.1-.43-1.73,0-.58.16-1.1.5-1.57.34-.48.81-.86,1.41-1.14.61-.29,1.3-.43,2.08-.43l-.3.88c-.94,0-1.69-.26-2.26-.77-.55-.52-.83-1.19-.83-2.02,0-.49.12-.97.35-1.42s.58-.84,1.04-1.14c.46-.31,1.02-.46,1.68-.46.29,0,.59.03.91.1.33.05.66.17.99.35.34.18.66.45.96.8l-1.07.98c-.24-.23-.49-.4-.77-.5-.28-.1-.56-.14-.85-.14-.53,0-.94.15-1.22.45-.27.3-.4.63-.4,1.01,0,.47.17.86.51,1.18.35.31.88.46,1.58.46h4.64v1.5Z"/>
    <path class="cls-1" d="M162.96,6.19h-5.26c-.65,0-1.16.17-1.52.51-.36.33-.54.78-.54,1.36s.18,1.02.53,1.36c.36.33.87.5,1.52.5.73,0,1.25-.21,1.58-.64.33-.44.5-1.09.5-1.97v-1.44h1.6v1.6c0,.83-.12,1.51-.35,2.03-.24.52-.54.93-.91,1.23-.37.29-.77.49-1.18.61-.42.11-.8.16-1.15.16-.8,0-1.48-.15-2.05-.46-.56-.31-.98-.73-1.28-1.25-.29-.52-.43-1.1-.43-1.73,0-.58.16-1.1.5-1.57.34-.48.81-.86,1.41-1.14.61-.29,1.3-.43,2.08-.43l-.3.88c-.94,0-1.69-.26-2.26-.77-.55-.52-.83-1.19-.83-2.02,0-.49.12-.97.35-1.42s.58-.84,1.04-1.14c.46-.31,1.02-.46,1.68-.46.29,0,.59.03.91.1.33.05.66.17.99.35.34.18.66.45.96.8l-1.07.98c-.24-.23-.49-.4-.77-.5-.28-.1-.56-.14-.85-.14-.53,0-.94.15-1.22.45-.27.3-.4.63-.4,1.01,0,.47.17.86.51,1.18.35.31.88.46,1.58.46h4.64v1.5Z"/>
    <path class="cls-1" d="M173.96,6.19h-5.26c-.65,0-1.16.17-1.52.51-.36.33-.54.78-.54,1.36s.18,1.02.53,1.36c.36.33.87.5,1.52.5.73,0,1.25-.21,1.58-.64.33-.44.5-1.09.5-1.97v-1.44h1.6v1.6c0,.83-.12,1.51-.35,2.03-.24.52-.54.93-.91,1.23-.37.29-.77.49-1.18.61-.42.11-.8.16-1.15.16-.8,0-1.48-.15-2.05-.46-.56-.31-.98-.73-1.28-1.25-.29-.52-.43-1.1-.43-1.73,0-.58.16-1.1.5-1.57.34-.48.81-.86,1.41-1.14.61-.29,1.3-.43,2.08-.43l-.3.88c-.94,0-1.69-.26-2.26-.77-.55-.52-.83-1.19-.83-2.02,0-.49.12-.97.35-1.42s.58-.84,1.04-1.14c.46-.31,1.02-.46,1.68-.46.29,0,.59.03.91.1.33.05.66.17.99.35.34.18.66.45.96.8l-1.07.98c-.24-.23-.49-.4-.77-.5-.28-.1-.56-.14-.85-.14-.53,0-.94.15-1.22.45-.27.3-.4.63-.4,1.01,0,.47.17.86.51,1.18.35.31.88.46,1.58.46h4.64v1.5Z"/>
    <path class="cls-1" d="M184.96,6.19h-5.26c-.65,0-1.16.17-1.52.51-.36.33-.54.78-.54,1.36s.18,1.02.53,1.36c.36.33.87.5,1.52.5.73,0,1.25-.21,1.58-.64.33-.44.5-1.09.5-1.97v-1.44h1.6v1.6c0,.83-.12,1.51-.35,2.03-.24.52-.54.93-.91,1.23-.37.29-.77.49-1.18.61-.42.11-.8.16-1.15.16-.8,0-1.48-.15-2.05-.46-.56-.31-.98-.73-1.28-1.25-.29-.52-.43-1.1-.43-1.73,0-.58.16-1.1.5-1.57.34-.48.81-.86,1.41-1.14.61-.29,1.3-.43,2.08-.43l-.3.88c-.94,0-1.69-.26-2.26-.77-.55-.52-.83-1.19-.83-2.02,0-.49.12-.97.35-1.42s.58-.84,1.04-1.14c.46-.31,1.02-.46,1.68-.46.29,0,.59.03.91.1.33.05.66.17.99.35.34.18.66.45.96.8l-1.07.98c-.24-.23-.49-.4-.77-.5-.28-.1-.56-.14-.85-.14-.53,0-.94.15-1.22.45-.27.3-.4.63-.4,1.01,0,.47.17.86.51,1.18.35.31.88.46,1.58.46h4.64v1.5Z"/>
    <path class="cls-1" d="M195.96,6.19h-5.26c-.65,0-1.16.17-1.52.51-.36.33-.54.78-.54,1.36s.18,1.02.53,1.36c.36.33.87.5,1.52.5.73,0,1.25-.21,1.58-.64.33-.44.5-1.09.5-1.97v-1.44h1.6v1.6c0,.83-.12,1.51-.35,2.03-.24.52-.54.93-.91,1.23-.37.29-.77.49-1.18.61-.42.11-.8.16-1.15.16-.8,0-1.48-.15-2.05-.46-.56-.31-.98-.73-1.28-1.25-.29-.52-.43-1.1-.43-1.73,0-.58.16-1.1.5-1.57.34-.48.81-.86,1.41-1.14.61-.29,1.3-.43,2.08-.43l-.3.88c-.94,0-1.69-.26-2.26-.77-.55-.52-.83-1.19-.83-2.02,0-.49.12-.97.35-1.42s.58-.84,1.04-1.14c.46-.31,1.02-.46,1.68-.46.29,0,.59.03.91.1.33.05.66.17.99.35.34.18.66.45.96.8l-1.07.98c-.24-.23-.49-.4-.77-.5-.28-.1-.56-.14-.85-.14-.53,0-.94.15-1.22.45-.27.3-.4.63-.4,1.01,0,.47.17.86.51,1.18.35.31.88.46,1.58.46h4.64v1.5Z"/>
    <path class="cls-1" d="M206.96,6.19h-5.26c-.65,0-1.16.17-1.52.51-.36.33-.54.78-.54,1.36s.18,1.02.53,1.36c.36.33.87.5,1.52.5.73,0,1.25-.21,1.58-.64.33-.44.5-1.09.5-1.97v-1.44h1.6v1.6c0,.83-.12,1.51-.35,2.03-.24.52-.54.93-.91,1.23-.37.29-.77.49-1.18.61-.42.11-.8.16-1.15.16-.8,0-1.48-.15-2.05-.46-.56-.31-.98-.73-1.28-1.25-.29-.52-.43-1.1-.43-1.73,0-.58.16-1.1.5-1.57.34-.48.81-.86,1.41-1.14.61-.29,1.3-.43,2.08-.43l-.3.88c-.94,0-1.69-.26-2.26-.77-.55-.52-.83-1.19-.83-2.02,0-.49.12-.97.35-1.42s.58-.84,1.04-1.14c.46-.31,1.02-.46,1.68-.46.29,0,.59.03.91.1.33.05.66.17.99.35.34.18.66.45.96.8l-1.07.98c-.24-.23-.49-.4-.77-.5-.28-.1-.56-.14-.85-.14-.53,0-.94.15-1.22.45-.27.3-.4.63-.4,1.01,0,.47.17.86.51,1.18.35.31.88.46,1.58.46h4.64v1.5Z"/>
    <path class="cls-1" d="M217.96,6.19h-5.26c-.65,0-1.16.17-1.52.51-.36.33-.54.78-.54,1.36s.18,1.02.53,1.36c.36.33.87.5,1.52.5.73,0,1.25-.21,1.58-.64.33-.44.5-1.09.5-1.97v-1.44h1.6v1.6c0,.83-.12,1.51-.35,2.03-.24.52-.54.93-.91,1.23-.37.29-.77.49-1.18.61-.42.11-.8.16-1.15.16-.8,0-1.48-.15-2.05-.46-.56-.31-.98-.73-1.28-1.25-.29-.52-.43-1.1-.43-1.73,0-.58.16-1.1.5-1.57.34-.48.81-.86,1.41-1.14.61-.29,1.3-.43,2.08-.43l-.3.88c-.94,0-1.69-.26-2.26-.77-.55-.52-.83-1.19-.83-2.02,0-.49.12-.97.35-1.42s.58-.84,1.04-1.14c.46-.31,1.02-.46,1.68-.46.29,0,.59.03.91.1.33.05.66.17.99.35.34.18.66.45.96.8l-1.07.98c-.24-.23-.49-.4-.77-.5-.28-.1-.56-.14-.85-.14-.53,0-.94.15-1.22.45-.27.3-.4.63-.4,1.01,0,.47.17.86.51,1.18.35.31.88.46,1.58.46h4.64v1.5Z"/>
    <path class="cls-1" d="M228.96,6.19h-5.26c-.65,0-1.16.17-1.52.51-.36.33-.54.78-.54,1.36s.18,1.02.53,1.36c.36.33.87.5,1.52.5.73,0,1.25-.21,1.58-.64.33-.44.5-1.09.5-1.97v-1.44h1.6v1.6c0,.83-.12,1.51-.35,2.03-.24.52-.54.93-.91,1.23-.37.29-.77.49-1.18.61-.42.11-.8.16-1.15.16-.8,0-1.48-.15-2.05-.46-.56-.31-.98-.73-1.28-1.25-.29-.52-.43-1.1-.43-1.73,0-.58.16-1.1.5-1.57.34-.48.81-.86,1.41-1.14.61-.29,1.3-.43,2.08-.43l-.3.88c-.94,0-1.69-.26-2.26-.77-.55-.52-.83-1.19-.83-2.02,0-.49.12-.97.35-1.42s.58-.84,1.04-1.14c.46-.31,1.02-.46,1.68-.46.29,0,.59.03.91.1.33.05.66.17.99.35.34.18.66.45.96.8l-1.07.98c-.24-.23-.49-.4-.77-.5-.28-.1-.56-.14-.85-.14-.53,0-.94.15-1.22.45-.27.3-.4.63-.4,1.01,0,.47.17.86.51,1.18.35.31.88.46,1.58.46h4.64v1.5Z"/>
    <path class="cls-1" d="M239.96,6.19h-5.26c-.65,0-1.16.17-1.52.51-.36.33-.54.78-.54,1.36s.18,1.02.53,1.36c.36.33.87.5,1.52.5.73,0,1.25-.21,1.58-.64.33-.44.5-1.09.5-1.97v-1.44h1.6v1.6c0,.83-.12,1.51-.35,2.03-.24.52-.54.93-.91,1.23-.37.29-.77.49-1.18.61-.42.11-.8.16-1.15.16-.8,0-1.48-.15-2.05-.46-.56-.31-.98-.73-1.28-1.25-.29-.52-.43-1.1-.43-1.73,0-.58.16-1.1.5-1.57.34-.48.81-.86,1.41-1.14.61-.29,1.3-.43,2.08-.43l-.3.88c-.94,0-1.69-.26-2.26-.77-.55-.52-.83-1.19-.83-2.02,0-.49.12-.97.35-1.42s.58-.84,1.04-1.14c.46-.31,1.02-.46,1.68-.46.29,0,.59.03.91.1.33.05.66.17.99.35.34.18.66.45.96.8l-1.07.98c-.24-.23-.49-.4-.77-.5-.28-.1-.56-.14-.85-.14-.53,0-.94.15-1.22.45-.27.3-.4.63-.4,1.01,0,.47.17.86.51,1.18.35.31.88.46,1.58.46h4.64v1.5Z"/>
    <path class="cls-1" d="M250.96,6.19h-5.26c-.65,0-1.16.17-1.52.51-.36.33-.54.78-.54,1.36s.18,1.02.53,1.36c.36.33.87.5,1.52.5.73,0,1.25-.21,1.58-.64.33-.44.5-1.09.5-1.97v-1.44h1.6v1.6c0,.83-.12,1.51-.35,2.03-.24.52-.54.93-.91,1.23-.37.29-.77.49-1.18.61-.42.11-.8.16-1.15.16-.8,0-1.48-.15-2.05-.46-.56-.31-.98-.73-1.28-1.25-.29-.52-.43-1.1-.43-1.73,0-.58.16-1.1.5-1.57.34-.48.81-.86,1.41-1.14.61-.29,1.3-.43,2.08-.43l-.3.88c-.94,0-1.69-.26-2.26-.77-.55-.52-.83-1.19-.83-2.02,0-.49.12-.97.35-1.42s.58-.84,1.04-1.14c.46-.31,1.02-.46,1.68-.46.29,0,.59.03.91.1.33.05.66.17.99.35.34.18.66.45.96.8l-1.07.98c-.24-.23-.49-.4-.77-.5-.28-.1-.56-.14-.85-.14-.53,0-.94.15-1.22.45-.27.3-.4.63-.4,1.01,0,.47.17.86.51,1.18.35.31.88.46,1.58.46h4.64v1.5Z"/>
    <path class="cls-1" d="M261.96,6.19h-5.26c-.65,0-1.16.17-1.52.51-.36.33-.54.78-.54,1.36s.18,1.02.53,1.36c.36.33.87.5,1.52.5.73,0,1.25-.21,1.58-.64.33-.44.5-1.09.5-1.97v-1.44h1.6v1.6c0,.83-.12,1.51-.35,2.03-.24.52-.54.93-.91,1.23-.37.29-.77.49-1.18.61-.42.11-.8.16-1.15.16-.8,0-1.48-.15-2.05-.46-.56-.31-.98-.73-1.28-1.25-.29-.52-.43-1.1-.43-1.73,0-.58.16-1.1.5-1.57.34-.48.81-.86,1.41-1.14.61-.29,1.3-.43,2.08-.43l-.3.88c-.94,0-1.69-.26-2.26-.77-.55-.52-.83-1.19-.83-2.02,0-.49.12-.97.35-1.42s.58-.84,1.04-1.14c.46-.31,1.02-.46,1.68-.46.29,0,.59.03.91.1.33.05.66.17.99.35.34.18.66.45.96.8l-1.07.98c-.24-.23-.49-.4-.77-.5-.28-.1-.56-.14-.85-.14-.53,0-.94.15-1.22.45-.27.3-.4.63-.4,1.01,0,.47.17.86.51,1.18.35.31.88.46,1.58.46h4.64v1.5Z"/>
    <path class="cls-1" d="M272.96,6.19h-5.26c-.65,0-1.16.17-1.52.51-.36.33-.54.78-.54,1.36s.18,1.02.53,1.36c.36.33.87.5,1.52.5.73,0,1.25-.21,1.58-.64.33-.44.5-1.09.5-1.97v-1.44h1.6v1.6c0,.83-.12,1.51-.35,2.03-.23.52-.54.93-.91,1.23-.37.29-.77.49-1.18.61-.42.11-.8.16-1.15.16-.8,0-1.48-.15-2.05-.46-.55-.31-.98-.73-1.28-1.25-.29-.52-.43-1.1-.43-1.73,0-.58.17-1.1.5-1.57.34-.48.81-.86,1.41-1.14.61-.29,1.3-.43,2.08-.43l-.3.88c-.94,0-1.69-.26-2.26-.77-.56-.52-.83-1.19-.83-2.02,0-.49.12-.97.35-1.42s.58-.84,1.04-1.14c.46-.31,1.02-.46,1.68-.46.29,0,.59.03.91.1.33.05.66.17.99.35.34.18.66.45.96.8l-1.07.98c-.23-.23-.49-.4-.77-.5-.28-.1-.56-.14-.85-.14-.53,0-.94.15-1.22.45-.27.3-.4.63-.4,1.01,0,.47.17.86.51,1.18.35.31.88.46,1.58.46h4.64v1.5Z"/>
    <path class="cls-1" d="M283.96,6.19h-5.26c-.65,0-1.16.17-1.52.51-.36.33-.54.78-.54,1.36s.18,1.02.53,1.36c.36.33.87.5,1.52.5.73,0,1.25-.21,1.58-.64.33-.44.5-1.09.5-1.97v-1.44h1.6v1.6c0,.83-.12,1.51-.35,2.03-.23.52-.54.93-.91,1.23-.37.29-.77.49-1.18.61-.42.11-.8.16-1.15.16-.8,0-1.48-.15-2.05-.46-.55-.31-.98-.73-1.28-1.25-.29-.52-.43-1.1-.43-1.73,0-.58.17-1.1.5-1.57.34-.48.81-.86,1.41-1.14.61-.29,1.3-.43,2.08-.43l-.3.88c-.94,0-1.69-.26-2.26-.77-.56-.52-.83-1.19-.83-2.02,0-.49.12-.97.35-1.42s.58-.84,1.04-1.14c.46-.31,1.02-.46,1.68-.46.29,0,.59.03.91.1.33.05.66.17.99.35.34.18.66.45.96.8l-1.07.98c-.23-.23-.49-.4-.77-.5-.28-.1-.56-.14-.85-.14-.53,0-.94.15-1.22.45-.27.3-.4.63-.4,1.01,0,.47.17.86.51,1.18.35.31.88.46,1.58.46h4.64v1.5Z"/>
    <path class="cls-1" d="M294.96,6.19h-5.26c-.65,0-1.16.17-1.52.51-.36.33-.54.78-.54,1.36s.18,1.02.53,1.36c.36.33.87.5,1.52.5.73,0,1.25-.21,1.58-.64.33-.44.5-1.09.5-1.97v-1.44h1.6v1.6c0,.83-.12,1.51-.35,2.03-.23.52-.54.93-.91,1.23-.37.29-.77.49-1.18.61-.42.11-.8.16-1.15.16-.8,0-1.48-.15-2.05-.46-.55-.31-.98-.73-1.28-1.25-.29-.52-.43-1.1-.43-1.73,0-.58.17-1.1.5-1.57.34-.48.81-.86,1.41-1.14.61-.29,1.3-.43,2.08-.43l-.3.88c-.94,0-1.69-.26-2.26-.77-.56-.52-.83-1.19-.83-2.02,0-.49.12-.97.35-1.42s.58-.84,1.04-1.14c.46-.31,1.02-.46,1.68-.46.29,0,.59.03.91.1.33.05.66.17.99.35.34.18.66.45.96.8l-1.07.98c-.23-.23-.49-.4-.77-.5-.28-.1-.56-.14-.85-.14-.53,0-.94.15-1.22.45-.27.3-.4.63-.4,1.01,0,.47.17.86.51,1.18.35.31.88.46,1.58.46h4.64v1.5Z"/>
    <path class="cls-1" d="M305.96,6.19h-5.26c-.65,0-1.16.17-1.52.51-.36.33-.54.78-.54,1.36s.18,1.02.53,1.36c.36.33.87.5,1.52.5.73,0,1.25-.21,1.58-.64.33-.44.5-1.09.5-1.97v-1.44h1.6v1.6c0,.83-.12,1.51-.35,2.03-.23.52-.54.93-.91,1.23-.37.29-.77.49-1.18.61-.42.11-.8.16-1.15.16-.8,0-1.48-.15-2.05-.46-.55-.31-.98-.73-1.28-1.25-.29-.52-.43-1.1-.43-1.73,0-.58.17-1.1.5-1.57.34-.48.81-.86,1.41-1.14.61-.29,1.3-.43,2.08-.43l-.3.88c-.94,0-1.69-.26-2.26-.77-.56-.52-.83-1.19-.83-2.02,0-.49.12-.97.35-1.42s.58-.84,1.04-1.14c.46-.31,1.02-.46,1.68-.46.29,0,.59.03.91.1.33.05.66.17.99.35.34.18.66.45.96.8l-1.07.98c-.23-.23-.49-.4-.77-.5-.28-.1-.56-.14-.85-.14-.53,0-.94.15-1.22.45-.27.3-.4.63-.4,1.01,0,.47.17.86.51,1.18.35.31.88.46,1.58.46h4.64v1.5Z"/>
    <path class="cls-1" d="M316.96,6.19h-5.26c-.65,0-1.16.17-1.52.51-.36.33-.54.78-.54,1.36s.18,1.02.53,1.36c.36.33.87.5,1.52.5.73,0,1.25-.21,1.58-.64.33-.44.5-1.09.5-1.97v-1.44h1.6v1.6c0,.83-.12,1.51-.35,2.03-.23.52-.54.93-.91,1.23-.37.29-.77.49-1.18.61-.42.11-.8.16-1.15.16-.8,0-1.48-.15-2.05-.46-.55-.31-.98-.73-1.28-1.25-.29-.52-.43-1.1-.43-1.73,0-.58.17-1.1.5-1.57.34-.48.81-.86,1.41-1.14.61-.29,1.3-.43,2.08-.43l-.3.88c-.94,0-1.69-.26-2.26-.77-.56-.52-.83-1.19-.83-2.02,0-.49.12-.97.35-1.42s.58-.84,1.04-1.14c.46-.31,1.02-.46,1.68-.46.29,0,.59.03.91.1.33.05.66.17.99.35.34.18.66.45.96.8l-1.07.98c-.23-.23-.49-.4-.77-.5-.28-.1-.56-.14-.85-.14-.53,0-.94.15-1.22.45-.27.3-.4.63-.4,1.01,0,.47.17.86.51,1.18.35.31.88.46,1.58.46h4.64v1.5Z"/>
    <path class="cls-1" d="M327.96,6.19h-5.26c-.65,0-1.16.17-1.52.51-.36.33-.54.78-.54,1.36s.18,1.02.53,1.36c.36.33.87.5,1.52.5.73,0,1.25-.21,1.58-.64.33-.44.5-1.09.5-1.97v-1.44h1.6v1.6c0,.83-.12,1.51-.35,2.03-.23.52-.54.93-.91,1.23-.37.29-.77.49-1.18.61-.42.11-.8.16-1.15.16-.8,0-1.48-.15-2.05-.46-.55-.31-.98-.73-1.28-1.25-.29-.52-.43-1.1-.43-1.73,0-.58.17-1.1.5-1.57.34-.48.81-.86,1.41-1.14.61-.29,1.3-.43,2.08-.43l-.3.88c-.94,0-1.69-.26-2.26-.77-.56-.52-.83-1.19-.83-2.02,0-.49.12-.97.35-1.42s.58-.84,1.04-1.14c.46-.31,1.02-.46,1.68-.46.29,0,.59.03.91.1.33.05.66.17.99.35.34.18.66.45.96.8l-1.07.98c-.23-.23-.49-.4-.77-.5-.28-.1-.56-.14-.85-.14-.53,0-.94.15-1.22.45-.27.3-.4.63-.4,1.01,0,.47.17.86.51,1.18.35.31.88.46,1.58.46h4.64v1.5Z"/>
    <path class="cls-1" d="M338.96,6.19h-5.26c-.65,0-1.16.17-1.52.51-.36.33-.54.78-.54,1.36s.18,1.02.53,1.36c.36.33.87.5,1.52.5.73,0,1.25-.21,1.58-.64.33-.44.5-1.09.5-1.97v-1.44h1.6v1.6c0,.83-.12,1.51-.35,2.03-.23.52-.54.93-.91,1.23-.37.29-.77.49-1.18.61-.42.11-.8.16-1.15.16-.8,0-1.48-.15-2.05-.46-.55-.31-.98-.73-1.28-1.25-.29-.52-.43-1.1-.43-1.73,0-.58.17-1.1.5-1.57.34-.48.81-.86,1.41-1.14.61-.29,1.3-.43,2.08-.43l-.3.88c-.94,0-1.69-.26-2.26-.77-.56-.52-.83-1.19-.83-2.02,0-.49.12-.97.35-1.42s.58-.84,1.04-1.14c.46-.31,1.02-.46,1.68-.46.29,0,.59.03.91.1.33.05.66.17.99.35.34.18.66.45.96.8l-1.07.98c-.23-.23-.49-.4-.77-.5-.28-.1-.56-.14-.85-.14-.53,0-.94.15-1.22.45-.27.3-.4.63-.4,1.01,0,.47.17.86.51,1.18.35.31.88.46,1.58.46h4.64v1.5Z"/>
    <path class="cls-1" d="M349.96,6.19h-5.26c-.65,0-1.16.17-1.52.51-.36.33-.54.78-.54,1.36s.18,1.02.53,1.36c.36.33.87.5,1.52.5.73,0,1.25-.21,1.58-.64.33-.44.5-1.09.5-1.97v-1.44h1.6v1.6c0,.83-.12,1.51-.35,2.03-.23.52-.54.93-.91,1.23-.37.29-.77.49-1.18.61-.42.11-.8.16-1.15.16-.8,0-1.48-.15-2.05-.46-.55-.31-.98-.73-1.28-1.25-.29-.52-.43-1.1-.43-1.73,0-.58.17-1.1.5-1.57.34-.48.81-.86,1.41-1.14.61-.29,1.3-.43,2.08-.43l-.3.88c-.94,0-1.69-.26-2.26-.77-.56-.52-.83-1.19-.83-2.02,0-.49.12-.97.35-1.42s.58-.84,1.04-1.14c.46-.31,1.02-.46,1.68-.46.29,0,.59.03.91.1.33.05.66.17.99.35.34.18.66.45.96.8l-1.07.98c-.23-.23-.49-.4-.77-.5-.28-.1-.56-.14-.85-.14-.53,0-.94.15-1.22.45-.27.3-.4.63-.4,1.01,0,.47.17.86.51,1.18.35.31.88.46,1.58.46h4.64v1.5Z"/>
    <path class="cls-1" d="M360.96,6.19h-5.26c-.65,0-1.16.17-1.52.51-.36.33-.54.78-.54,1.36s.18,1.02.53,1.36c.36.33.87.5,1.52.5.73,0,1.25-.21,1.58-.64.33-.44.5-1.09.5-1.97v-1.44h1.6v1.6c0,.83-.12,1.51-.35,2.03-.23.52-.54.93-.91,1.23-.37.29-.77.49-1.18.61-.42.11-.8.16-1.15.16-.8,0-1.48-.15-2.05-.46-.55-.31-.98-.73-1.28-1.25-.29-.52-.43-1.1-.43-1.73,0-.58.17-1.1.5-1.57.34-.48.81-.86,1.41-1.14.61-.29,1.3-.43,2.08-.43l-.3.88c-.94,0-1.69-.26-2.26-.77-.56-.52-.83-1.19-.83-2.02,0-.49.12-.97.35-1.42s.58-.84,1.04-1.14c.46-.31,1.02-.46,1.68-.46.29,0,.59.03.91.1.33.05.66.17.99.35.34.18.66.45.96.8l-1.07.98c-.23-.23-.49-.4-.77-.5-.28-.1-.56-.14-.85-.14-.53,0-.94.15-1.22.45-.27.3-.4.63-.4,1.01,0,.47.17.86.51,1.18.35.31.88.46,1.58.46h4.64v1.5Z"/>
    <path class="cls-1" d="M371.96,6.19h-5.26c-.65,0-1.16.17-1.52.51-.36.33-.54.78-.54,1.36s.18,1.02.53,1.36c.36.33.87.5,1.52.5.73,0,1.25-.21,1.58-.64.33-.44.5-1.09.5-1.97v-1.44h1.6v1.6c0,.83-.12,1.51-.35,2.03-.23.52-.54.93-.91,1.23-.37.29-.77.49-1.18.61-.42.11-.8.16-1.15.16-.8,0-1.48-.15-2.05-.46-.55-.31-.98-.73-1.28-1.25-.29-.52-.43-1.1-.43-1.73,0-.58.17-1.1.5-1.57.34-.48.81-.86,1.41-1.14.61-.29,1.3-.43,2.08-.43l-.3.88c-.94,0-1.69-.26-2.26-.77-.56-.52-.83-1.19-.83-2.02,0-.49.12-.97.35-1.42s.58-.84,1.04-1.14c.46-.31,1.02-.46,1.68-.46.29,0,.59.03.91.1.33.05.66.17.99.35.34.18.66.45.96.8l-1.07.98c-.23-.23-.49-.4-.77-.5-.28-.1-.56-.14-.85-.14-.53,0-.94.15-1.22.45-.27.3-.4.63-.4,1.01,0,.47.17.86.51,1.18.35.31.88.46,1.58.46h4.64v1.5Z"/>
    <path class="cls-1" d="M382.96,6.19h-5.26c-.65,0-1.16.17-1.52.51-.36.33-.54.78-.54,1.36s.18,1.02.53,1.36c.36.33.87.5,1.52.5.73,0,1.25-.21,1.58-.64.33-.44.5-1.09.5-1.97v-1.44h1.6v1.6c0,.83-.12,1.51-.35,2.03-.23.52-.54.93-.91,1.23-.37.29-.77.49-1.18.61-.42.11-.8.16-1.15.16-.8,0-1.48-.15-2.05-.46-.55-.31-.98-.73-1.28-1.25-.29-.52-.43-1.1-.43-1.73,0-.58.17-1.1.5-1.57.34-.48.81-.86,1.41-1.14.61-.29,1.3-.43,2.08-.43l-.3.88c-.94,0-1.69-.26-2.26-.77-.56-.52-.83-1.19-.83-2.02,0-.49.12-.97.35-1.42s.58-.84,1.04-1.14c.46-.31,1.02-.46,1.68-.46.29,0,.59.03.91.1.33.05.66.17.99.35.34.18.66.45.96.8l-1.07.98c-.23-.23-.49-.4-.77-.5-.28-.1-.56-.14-.85-.14-.53,0-.94.15-1.22.45-.27.3-.4.63-.4,1.01,0,.47.17.86.51,1.18.35.31.88.46,1.58.46h4.64v1.5Z"/>
    <path class="cls-1" d="M393.96,6.19h-5.26c-.65,0-1.16.17-1.52.51-.36.33-.54.78-.54,1.36s.18,1.02.53,1.36c.36.33.87.5,1.52.5.73,0,1.25-.21,1.58-.64.33-.44.5-1.09.5-1.97v-1.44h1.6v1.6c0,.83-.12,1.51-.35,2.03-.23.52-.54.93-.91,1.23-.37.29-.77.49-1.18.61-.42.11-.8.16-1.15.16-.8,0-1.48-.15-2.05-.46-.55-.31-.98-.73-1.28-1.25-.29-.52-.43-1.1-.43-1.73,0-.58.17-1.1.5-1.57.34-.48.81-.86,1.41-1.14.61-.29,1.3-.43,2.08-.43l-.3.88c-.94,0-1.69-.26-2.26-.77-.56-.52-.83-1.19-.83-2.02,0-.49.12-.97.35-1.42s.58-.84,1.04-1.14c.46-.31,1.02-.46,1.68-.46.29,0,.59.03.91.1.33.05.66.17.99.35.34.18.66.45.96.8l-1.07.98c-.23-.23-.49-.4-.77-.5-.28-.1-.56-.14-.85-.14-.53,0-.94.15-1.22.45-.27.3-.4.63-.4,1.01,0,.47.17.86.51,1.18.35.31.88.46,1.58.46h4.64v1.5Z"/>
    <path class="cls-1" d="M404.96,6.19h-5.26c-.65,0-1.16.17-1.52.51-.36.33-.54.78-.54,1.36s.18,1.02.53,1.36c.36.33.87.5,1.52.5.73,0,1.25-.21,1.58-.64.33-.44.5-1.09.5-1.97v-1.44h1.6v1.6c0,.83-.12,1.51-.35,2.03-.23.52-.54.93-.91,1.23-.37.29-.77.49-1.18.61-.42.11-.8.16-1.15.16-.8,0-1.48-.15-2.05-.46-.55-.31-.98-.73-1.28-1.25-.29-.52-.43-1.1-.43-1.73,0-.58.17-1.1.5-1.57.34-.48.81-.86,1.41-1.14.61-.29,1.3-.43,2.08-.43l-.3.88c-.94,0-1.69-.26-2.26-.77-.56-.52-.83-1.19-.83-2.02,0-.49.12-.97.35-1.42s.58-.84,1.04-1.14c.46-.31,1.02-.46,1.68-.46.29,0,.59.03.91.1.33.05.66.17.99.35.34.18.66.45.96.8l-1.07.98c-.23-.23-.49-.4-.77-.5-.28-.1-.56-.14-.85-.14-.53,0-.94.15-1.22.45-.27.3-.4.63-.4,1.01,0,.47.17.86.51,1.18.35.31.88.46,1.58.46h4.64v1.5Z"/>
  </g>
</svg>