<?xml version="1.0" encoding="UTF-8"?>
<svg id="Lager_2" xmlns="http://www.w3.org/2000/svg" xmlns:xlink="http://www.w3.org/1999/xlink" viewBox="0 0 310.34 178.44">
  <defs>
    <style>
      .cls-1 {
        fill: none;
      }

      .cls-2 {
        fill: url(#Namnlös_övertoning_2);
      }

      .cls-3 {
        fill: #f9b3d1;
      }

      .cls-4 {
        clip-path: url(#clippath);
      }

      .cls-5 {
        fill: #c62e65;
      }
    </style>
    <clipPath id="clippath">
      <rect class="cls-1" width="310.34" height="178.44"/>
    </clipPath>
    <linearGradient id="Namnlös_övertoning_2" data-name="Namnlös övertoning 2" x1="-238.91" y1="237.07" x2="-212.81" y2="237.07" gradientTransform="translate(302.5 359.65) scale(1 -1)" gradientUnits="userSpaceOnUse">
      <stop offset="0" stop-color="#fdf0d5"/>
      <stop offset="1" stop-color="#f9b3d1"/>
    </linearGradient>
  </defs>
  <g id="Lager_1-2" data-name="Lager_1">
    <g class="cls-4">
      <g>
        <path class="cls-5" d="M9.61,38.6h13.95c4.27,0,7.66-1.1,10.18-3.3,2.51-2.2,3.77-5.27,3.77-9.2,0-4.2-1.24-7.37-3.72-9.5-2.48-2.13-5.85-3.2-10.12-3.2h-14.05l2.38-2.6v59.7H0V2.4h25.1c5.03,0,9.38,1.02,13.07,3.05,3.68,2.03,6.56,4.83,8.63,8.4,2.07,3.57,3.1,7.65,3.1,12.25s-1.03,8.58-3.1,12.15-4.96,6.35-8.68,8.35c-3.72,2-8.06,3-13.02,3h-15.5v-11h0Z"/>
        <path class="cls-5" d="M71.49,71.9c-3.86,0-7.18-.68-9.97-2.05-2.79-1.37-4.94-3.28-6.46-5.75-1.52-2.47-2.27-5.4-2.27-8.8s.77-6.23,2.32-8.7c1.55-2.47,3.74-4.42,6.56-5.85s6.1-2.15,9.81-2.15c4.89,0,8.83,1.07,11.83,3.2s5.04,5.13,6.15,9l-5.99-.4v-12.1c0-2-.71-3.8-2.12-5.4-1.41-1.6-3.81-2.4-7.18-2.4-1.93,0-4.06.22-6.41.65-2.34.43-4.75,1.22-7.23,2.35l-3.62-8.6c2.89-1.4,5.94-2.47,9.14-3.2,3.2-.73,6.39-1.1,9.56-1.1,4.48,0,8.18.78,11.11,2.35,2.93,1.57,5.11,3.68,6.56,6.35,1.45,2.67,2.17,5.73,2.17,9.2v32h-9.19l-2.69-9.1,5.89-1.7c-1.17,4-3.32,7.03-6.46,9.1-3.13,2.07-6.97,3.1-11.52,3.1h0ZM58.06,7.2c0-2.07.67-3.78,2.01-5.15,1.34-1.37,3.12-2.05,5.32-2.05,2.07,0,3.79.68,5.17,2.05,1.38,1.37,2.07,3.08,2.07,5.15,0,1.93-.69,3.58-2.07,4.95-1.38,1.37-3.1,2.05-5.17,2.05-2.21,0-3.98-.67-5.32-2s-2.01-3-2.01-5ZM74.28,62.4c2.75,0,4.98-.63,6.66-1.9,1.69-1.27,2.53-3,2.53-5.2,0-2.33-.84-4.12-2.53-5.35-1.69-1.23-3.91-1.85-6.66-1.85s-4.98.62-6.66,1.85c-1.69,1.23-2.53,3.02-2.53,5.35,0,2.2.84,3.93,2.53,5.2,1.69,1.27,3.91,1.9,6.66,1.9ZM78.1,7.2c0-2.07.67-3.78,2.01-5.15,1.34-1.37,3.08-2.05,5.22-2.05s3.87.68,5.22,2.05c1.34,1.37,2.01,3.08,2.01,5.15,0,1.93-.67,3.58-2.01,4.95-1.34,1.37-3.08,2.05-5.22,2.05s-3.87-.67-5.22-2c-1.34-1.33-2.01-3-2.01-5Z"/>
        <path class="cls-5" d="M116.33,21.7l3,13.3v35.5h-11.98V21.7h8.99,0ZM117.15,40.5l-2.48-1.1v-8.7l.93-1.2c.69-1.13,1.79-2.4,3.31-3.8,1.51-1.4,3.29-2.6,5.32-3.6,2.03-1,4.11-1.5,6.25-1.5,1.03,0,2.01.07,2.94.2.93.13,1.64.37,2.12.7v10.5h-3.31c-4.55,0-7.96.68-10.23,2.05s-3.89,3.52-4.86,6.45h.01Z"/>
        <path class="cls-5" d="M143.81,70.5V21.7h8.99l2.48,8.9-3.51.1c1.86-2.07,3.84-3.85,5.94-5.35,2.1-1.5,4.37-2.67,6.82-3.5,2.44-.83,4.98-1.25,7.59-1.25,3.51,0,6.3.57,8.37,1.7,2.07,1.13,3.6,2.68,4.6,4.65,1,1.97,1.65,4.17,1.96,6.6.31,2.43.46,4.95.46,7.55v29.4h-11.98v-30.4c0-3.27-.71-5.45-2.12-6.55-1.41-1.1-3.12-1.65-5.11-1.65-2.76,0-5.44.83-8.06,2.5-2.62,1.67-4.65,3.73-6.1,6.2l-.93-6.3h2.58v36.2h-11.98ZM207.24,70.5v-30.4c0-3.27-.71-5.45-2.12-6.55-1.41-1.1-3.08-1.65-5.01-1.65-2.82,0-5.54.83-8.16,2.5-2.62,1.67-4.65,3.73-6.1,6.2l-2.27-9.9c1.79-2.07,3.74-3.85,5.84-5.35,2.1-1.5,4.37-2.67,6.82-3.5,2.44-.83,4.97-1.25,7.59-1.25,3.51,0,6.3.57,8.37,1.7,2.07,1.13,3.6,2.68,4.6,4.65,1,1.97,1.65,4.17,1.96,6.6.31,2.43.47,4.95.47,7.55v29.4h-11.99Z"/>
        <path class="cls-5" d="M246.29,71.9c-3.86,0-7.18-.68-9.97-2.05-2.79-1.37-4.94-3.28-6.46-5.75-1.52-2.47-2.27-5.4-2.27-8.8s.77-6.23,2.32-8.7c1.55-2.47,3.74-4.42,6.56-5.85,2.82-1.43,6.1-2.15,9.81-2.15,4.89,0,8.83,1.07,11.83,3.2,3,2.13,5.04,5.13,6.15,9l-5.99-.4v-12.1c0-2-.71-3.8-2.12-5.4-1.41-1.6-3.81-2.4-7.18-2.4-1.93,0-4.06.22-6.41.65-2.34.43-4.75,1.22-7.23,2.35l-3.62-8.6c2.89-1.4,5.94-2.47,9.14-3.2,3.2-.73,6.39-1.1,9.56-1.1,4.48,0,8.18.78,11.11,2.35,2.93,1.57,5.11,3.68,6.56,6.35,1.45,2.67,2.17,5.73,2.17,9.2v32h-9.19l-2.69-9.1,5.89-1.7c-1.17,4-3.32,7.03-6.46,9.1-3.13,2.07-6.97,3.1-11.52,3.1h0ZM249.08,62.4c2.75,0,4.98-.63,6.66-1.9,1.69-1.27,2.53-3,2.53-5.2,0-2.33-.84-4.12-2.53-5.35-1.69-1.23-3.91-1.85-6.66-1.85s-4.98.62-6.66,1.85c-1.69,1.23-2.53,3.02-2.53,5.35,0,2.2.84,3.93,2.53,5.2s3.91,1.9,6.66,1.9Z"/>
        <path class="cls-5" d="M291.13,21.7l3,13.3v35.5h-11.98V21.7h8.99-.01ZM291.95,40.5l-2.48-1.1v-8.7l.93-1.2c.69-1.13,1.79-2.4,3.31-3.8,1.52-1.4,3.29-2.6,5.32-3.6s4.11-1.5,6.25-1.5c1.03,0,2.01.07,2.94.2.93.13,1.63.37,2.12.7v10.5h-3.31c-4.55,0-7.95.68-10.23,2.05-2.27,1.37-3.89,3.52-4.85,6.45Z"/>
        <path class="cls-2" d="M134.74,121.69c-1.86-3.83-4.48-6.81-7.85-8.95-3.36-2.13-7.31-3.2-11.85-3.2s-8.11,1.05-11.35,3.15c-1.47.95-2.8,2.09-3.97,3.4l-1.48-5.45h-8.7v.04h-50.02c-6.09,0-10.64-1.47-13.63-4.42-3-2.95-4.5-6.63-4.5-11.03,0-3.5,1.17-6.65,3.53-9.45,2.35-2.8,5.83-4.2,10.45-4.2,2.49,0,4.93.45,7.33,1.35,2.4.9,4.61,2.45,6.64,4.65l9.28-9.15c-2.59-3.3-5.33-5.8-8.24-7.5-2.9-1.7-5.77-2.82-8.58-3.37-2.81-.55-5.47-.83-7.96-.83-5.72,0-10.56,1.43-14.53,4.28-3.97,2.85-6.96,6.42-8.99,10.72-2.03,4.3-3.05,8.75-3.05,13.35,0,7.7,2.42,13.98,7.27,18.83,1.19,1.19,2.48,2.24,3.88,3.14-5.08,2.64-9.05,6.14-11.91,10.51-2.91,4.45-4.36,9.37-4.36,14.77,0,5.9,1.27,11.3,3.81,16.2,2.53,4.9,6.23,8.8,11.07,11.7,4.84,2.9,10.72,4.35,17.64,4.35,3.05,0,6.37-.52,9.97-1.57,3.6-1.05,7.01-2.95,10.24-5.7s5.86-6.58,7.89-11.48c2.03-4.9,3.04-11.25,3.04-19.05v-12h23.73v53.66h11.6v-22.85c.76.68,1.58,1.3,2.45,1.85,3.24,2.07,7.05,3.1,11.45,3.1s8.4-1.06,11.8-3.2c3.4-2.13,6.04-5.11,7.9-8.95,1.87-3.83,2.8-8.25,2.8-13.25s-.93-9.61-2.8-13.45ZM51.97,135.28c0,8.2-1.43,14.33-4.29,18.38s-7.43,6.07-13.7,6.07c-5.63,0-9.99-1.57-13.08-4.72-3.09-3.15-4.63-7.38-4.63-12.68s1.57-9.67,4.7-12.82c3.14-3.15,7.52-4.73,13.15-4.73h17.85v10.5ZM122.24,145.99c-2.33,2.77-5.36,4.15-9.1,4.15s-6.68-1.38-9.05-4.15c-2.36-2.76-3.55-6.41-3.55-10.95s1.19-8.18,3.55-10.95c2.37-2.76,5.39-4.15,9.05-4.15s6.77,1.4,9.1,4.2c2.34,2.8,3.5,6.47,3.5,11s-1.16,8.09-3.5,10.85Z"/>
        <path class="cls-3" d="M167.14,160.54c-4.93,0-9.3-1.07-13.1-3.2-3.8-2.13-6.75-5.12-8.85-8.95-2.1-3.83-3.15-8.28-3.15-13.35s1.05-9.52,3.15-13.35c2.1-3.83,5.05-6.82,8.85-8.95,3.8-2.13,8.17-3.2,13.1-3.2s9.5,1.07,13.3,3.2c3.8,2.13,6.75,5.12,8.85,8.95,2.1,3.83,3.15,8.28,3.15,13.35s-1.05,9.52-3.15,13.35c-2.1,3.83-5.05,6.82-8.85,8.95-3.8,2.13-8.23,3.2-13.3,3.2ZM167.24,149.33c4,0,7.23-1.32,9.7-3.95,2.47-2.63,3.7-6.08,3.7-10.35s-1.23-7.72-3.7-10.35-5.7-3.95-9.7-3.95-7.23,1.32-9.7,3.95c-2.47,2.63-3.7,6.08-3.7,10.35s1.23,7.72,3.7,10.35c2.47,2.63,5.7,3.95,9.7,3.95Z"/>
        <path class="cls-3" d="M221.14,160.44c-4.8,0-9-1.05-12.6-3.15-3.6-2.1-6.42-5.05-8.45-8.85s-3.05-8.23-3.05-13.3,1.02-9.62,3.05-13.45c2.03-3.83,4.85-6.82,8.45-8.95,3.6-2.13,7.8-3.2,12.6-3.2s9.12,1.08,12.75,3.25,6.45,5.17,8.45,9,3,8.25,3,13.25c0,.6-.02,1.2-.05,1.8-.03.6-.08,1.13-.15,1.6h-37.9v-9.3h29.3l-2.4,5.3c0-4.6-1.07-8.37-3.2-11.3s-5.37-4.4-9.7-4.4c-3.93,0-7.05,1.22-9.35,3.65s-3.45,5.65-3.45,9.65v5.3c0,4.13,1.15,7.42,3.45,9.85,2.3,2.43,5.48,3.65,9.55,3.65,3.67,0,6.52-.77,8.55-2.3,2.03-1.53,3.78-3.43,5.25-5.7l8.3,5c-2.2,4.13-5.13,7.27-8.8,9.4-3.67,2.13-8.2,3.2-13.6,3.2Z"/>
        <path class="cls-3" d="M269.64,160.64c-3.6,0-7.07-.8-10.4-2.4-3.33-1.6-6.2-4.3-8.6-8.1l7.9-6c2,2.4,3.9,4.13,5.7,5.2,1.8,1.07,4,1.6,6.6,1.6,1.87,0,3.33-.47,4.4-1.4,1.07-.93,1.6-2.1,1.6-3.5,0-.93-.27-1.77-.8-2.5-.53-.73-1.52-1.42-2.95-2.05-1.43-.63-3.48-1.28-6.15-1.95-4.93-1.27-8.68-3-11.25-5.2s-3.85-5.47-3.85-9.8c0-2.73.7-5.25,2.1-7.55,1.4-2.3,3.43-4.13,6.1-5.5,2.67-1.37,5.8-2.05,9.4-2.05,4.33,0,8.03.87,11.1,2.6,3.07,1.73,5.5,3.8,7.3,6.2l-8.1,6.4c-1.13-1.27-2.65-2.45-4.55-3.55-1.9-1.1-4.18-1.65-6.85-1.65-1.6,0-3.03.4-4.3,1.2-1.27.8-1.9,1.93-1.9,3.4s.63,2.57,1.9,3.5c1.27.93,3.67,1.8,7.2,2.6,5.93,1.4,10.17,3.27,12.7,5.6s3.8,5.4,3.8,9.2c0,3.2-.83,5.98-2.5,8.35-1.67,2.37-3.87,4.18-6.6,5.45-2.73,1.27-5.73,1.9-9,1.9Z"/>
        <path class="cls-3" d="M295.84,95.44c0-2.13.65-3.88,1.95-5.25,1.3-1.37,3.08-2.05,5.35-2.05,2.13,0,3.87.68,5.2,2.05,1.33,1.37,2,3.12,2,5.25s-.67,3.87-2,5.2c-1.33,1.33-3.07,2-5.2,2-2.27,0-4.05-.67-5.35-2-1.3-1.33-1.95-3.07-1.95-5.2ZM308.94,159.44h-11.6v-48.8h11.6v48.8Z"/>
      </g>
    </g>
  </g>
</svg>